#!OML:ASF E:\Style4\Style4.ASF
:FULLY-SPECIFIED
:DEGREES
2558
root -0.11863 17.9835 -0.700349 0.818031 -1.76941 4.16819
lowerback 4.50356 3.24767 2.52325
upperback -0.882807 4.53144 1.72212
thorax -3.37597 2.22051 0.0335779
lowerneck -1.43849 2.78694 -1.2342
upperneck -1.68517 3.74609 1.42402
head -0.327429 1.87695 0.636119
rclavicle -9.75287e-015 2.38542e-014
rhumerus 24.2965 -5.38947 -56.8626
rradius 68.3726
rwrist -16.83
rhand -31.0961 26.7733
rfingers 7.12502
rthumb -4.37597 -3.16153
lclavicle -9.75287e-015 2.38542e-014
lhumerus 2.03445 15.032 44.4225
lradius 84.901
lwrist 33.2878
lhand -19.0857 27.9281
lfingers 7.12502
lthumb 7.22241 57.7849
rfemur -10.03 1.15866 14.8966
rtibia 27.488
rfoot -17.0895 -16.4373
rtoes -11.3572
lfemur -5.56646 -0.354518 -23.6937
ltibia 20.1762
lfoot -16.3651 12.744
ltoes -12.9551
2559
root -0.126916 17.9829 -0.70139 0.847612 -1.77299 4.1351
lowerback 4.49329 3.26386 2.53921
upperback -0.877598 4.55285 1.70791
thorax -3.36209 2.23091 0.00956143
lowerneck -1.42328 2.77257 -1.21864
upperneck -1.66261 3.72619 1.40483
head -0.322075 1.86692 0.627633
rclavicle 3.3048e-014 1.11319e-014
rhumerus 24.2817 -5.43672 -56.9055
rradius 68.342
rwrist -16.8415
rhand -31.1916 26.9447
rfingers 7.12502
rthumb -4.46813 -2.98816
lclavicle 3.3048e-014 1.11319e-014
lhumerus 2.07995 14.9751 44.476
lradius 84.8814
lwrist 33.4635
lhand -19.0845 27.8682
lfingers 7.12502
lthumb 7.22356 57.7249
rfemur -10.0639 1.16143 14.9645
rtibia 27.498
rfoot -17.1885 -16.3524
rtoes -10.6948
lfemur -5.63063 -0.283773 -23.6192
ltibia 20.2267
lfoot -16.3885 12.6383
ltoes -12.8352
2560
root -0.135379 17.9835 -0.703001 0.866792 -1.73784 4.04211
lowerback 4.55858 3.27212 2.63947
upperback -0.912832 4.57276 1.69108
thorax -3.42589 2.23745 -0.0698283
lowerneck -1.37499 2.76144 -1.18192
upperneck -1.63462 3.71036 1.42013
head -0.320846 1.8586 0.625766
rclavicle 1.6027e-015 2.22639e-014
rhumerus 24.1337 -5.46629 -56.9028
rradius 68.4253
rwrist -16.8708
rhand -31.233 26.7699
rfingers 7.12502
rthumb -4.5081 -3.16216
lclavicle 1.6027e-015 2.22639e-014
lhumerus 2.06649 14.8567 44.4777
lradius 84.9145
lwrist 33.5742
lhand -18.9379 27.725
lfingers 7.12502
lthumb 7.36509 57.5768
rfemur -10.0789 1.19589 15.1056
rtibia 27.474
rfoot -17.0237 -16.503
rtoes -11.4131
lfemur -5.67464 -0.254037 -23.4755
ltibia 20.2494
lfoot -16.3421 12.6046
ltoes -12.8833
2561
root -0.143146 17.984 -0.704823 0.8911 -1.7215 4.04406
lowerback 4.58944 3.28105 2.63346
upperback -0.927226 4.58479 1.65377
thorax -3.4553 2.24266 -0.108072
lowerneck -1.35648 2.76639 -1.1497
upperneck -1.61985 3.71647 1.43729
head -0.319197 1.86138 0.625547
rclavicle -7.63333e-014 -2.8625e-014
rhumerus 24.0398 -5.4475 -56.8632
rradius 68.5289
rwrist -16.9146
rhand -31.4212 26.5146
rfingers 7.12502
rthumb -4.68988 -3.41345
lclavicle -7.63333e-014 -2.8625e-014
lhumerus 2.08434 14.7602 44.4852
lradius 84.9529
lwrist 33.579
lhand -18.934 27.7628
lfingers 7.12502
lthumb 7.36883 57.6145
rfemur -10.111 1.26024 15.1291
rtibia 27.4325
rfoot -16.9712 -16.6822
rtoes -12.261
lfemur -5.70075 -0.19085 -23.443
ltibia 20.224
lfoot -16.2305 12.5462
ltoes -13.0294
2562
root -0.150211 17.9845 -0.704899 0.906497 -1.74149 4.16743
lowerback 4.56573 3.3168 2.52041
upperback -0.904265 4.62172 1.57856
thorax -3.42 2.26326 -0.122945
lowerneck -1.38426 2.73831 -1.12881
upperneck -1.58617 3.67884 1.45131
head -0.303802 1.84258 0.627094
rclavicle 6.15704e-014 7.95139e-015
rhumerus 23.9904 -5.44461 -56.8127
rradius 68.5674
rwrist -16.7845
rhand -31.8625 26.537
rfingers 7.12502
rthumb -5.11599 -3.38128
lclavicle 6.15704e-014 7.95139e-015
lhumerus 2.17284 14.6665 44.5669
lradius 84.9857
lwrist 33.6084
lhand -18.8694 27.8849
lfingers 7.12502
lthumb 7.4312 57.7344
rfemur -10.1418 1.33426 14.9994
rtibia 27.4024
rfoot -17.1313 -16.7373
rtoes -12.0815
lfemur -5.6939 -0.0397009 -23.5425
ltibia 20.1506
lfoot -16.131 12.4294
ltoes -13.3545
2563
root -0.156914 17.9843 -0.703772 0.905841 -1.74429 4.28988
lowerback 4.54408 3.32948 2.4216
upperback -0.881913 4.62869 1.49572
thorax -3.3853 2.26854 -0.151491
lowerneck -1.34299 2.72487 -1.10176
upperneck -1.6022 3.66074 1.47811
head -0.315197 1.83314 0.630098
rclavicle -2.92462e-014 -3.18055e-014
rhumerus 23.9374 -5.42087 -56.8309
rradius 68.5535
rwrist -16.5355
rhand -32.2503 26.8372
rfingers 7.12502
rthumb -5.49042 -3.07164
lclavicle -2.92462e-014 -3.18055e-014
lhumerus 2.22513 14.5802 44.5635
lradius 84.9814
lwrist 33.6654
lhand -18.7058 27.8415
lfingers 7.12502
lthumb 7.5891 57.6853
rfemur -10.1503 1.31131 14.8743
rtibia 27.4089
rfoot -17.2749 -16.6783
rtoes -11.789
lfemur -5.63267 0.0245347 -23.65
ltibia 20.0393
lfoot -16.0779 12.3849
ltoes -13.5465
2564
root -0.163187 17.9842 -0.703747 0.924554 -1.72067 4.38044
lowerback 4.55057 3.33549 2.34418
upperback -0.875126 4.63037 1.43684
thorax -3.38298 2.27044 -0.169347
lowerneck -1.31453 2.71488 -1.04327
upperneck -1.61664 3.64597 1.4054
head -0.321419 1.82549 0.597672
rclavicle 8.21035e-014 0
rhumerus 23.8685 -5.44265 -56.838
rradius 68.6558
rwrist -16.4795
rhand -32.3491 26.7753
rfingers 7.12502
rthumb -5.58584 -3.13113
lclavicle 8.21035e-014 0
lhumerus 2.26068 14.4774 44.5696
lradius 84.9808
lwrist 33.7261
lhand -18.7417 27.7862
lfingers 7.12502
lthumb 7.55449 57.6313
rfemur -10.1809 1.22307 14.7928
rtibia 27.4326
rfoot -17.1406 -16.6666
rtoes -12.2013
lfemur -5.60573 0.0262595 -23.7224
ltibia 19.9574
lfoot -16.0684 12.3192
ltoes -13.13
